<svg width="54" height="54" viewBox="0 0 54 54" fill="currentColor" xmlns="http://www.w3.org/2000/svg">
    <path d="M45.495 22.5L36.1575 22.5225C35.8105 22.5014 35.4635 22.5631 35.145 22.7025L33.8175 23.2875L29.7 14.0625C28.44 11.2275 25.11 9.945 22.275 11.205C19.44 12.465 18.1575 15.795 19.4175 18.63L26.8425 35.3925L22.635 36.27C22.2075 36.3825 20.4075 36.8775 19.575 38.9925L18 43.1775L33.255 49.185C34.3575 49.6125 35.6175 49.59 36.6975 49.095L50.175 43.1325C52.1775 42.2325 53.2575 40.0275 52.7175 37.9125L49.6575 25.8975C49.1625 23.9625 47.475 22.59 45.495 22.5ZM48.3525 39.015L34.875 45L23.805 40.59L33.21 38.61L23.535 16.785C23.2875 16.2225 23.535 15.5475 24.0975 15.3C24.66 15.0525 25.335 15.3 25.5825 15.8625L31.2075 28.575L34.83 26.9775L45.2925 27L48.3525 39.015ZM8.55 27.405C8.1 25.47 7.875 23.445 7.875 21.375C7.875 14.985 10.1025 9.1125 13.7925 4.5L16.2 6.9075C14.002 9.73484 12.4785 13.0266 11.7454 16.532C11.0124 20.0374 11.0892 23.6638 11.97 27.135L15.615 23.49L18 25.875L10.125 33.75L2.25 25.875L4.635 23.49L8.55 27.405Z"
          fill="currentColor"/>
</svg>
