<svg width="21" height="16" viewBox="0 0 21 16" fill="none" xmlns="http://www.w3.org/2000/svg">
    <path d="M12.4 14.9438C12.1333 14.6771 12.0053 14.3549 12.016 13.9771C12.0276 13.5993 12.1667 13.2771 12.4333 13.0104L16.2 9.24378H1.33333C0.955556 9.24378 0.638667 9.11578 0.382667 8.85978C0.127556 8.60467 0 8.28822 0 7.91045C0 7.53267 0.127556 7.21578 0.382667 6.95978C0.638667 6.70467 0.955556 6.57711 1.33333 6.57711H16.2L12.4 2.77711C12.1333 2.51044 12 2.19356 12 1.82644C12 1.46022 12.1333 1.14378 12.4 0.877111C12.6667 0.610445 12.9836 0.477112 13.3507 0.477112C13.7169 0.477112 14.0333 0.610445 14.3 0.877111L20.4 6.97711C20.5333 7.11045 20.628 7.25489 20.684 7.41045C20.7391 7.566 20.7667 7.73267 20.7667 7.91045C20.7667 8.08822 20.7391 8.25489 20.684 8.41045C20.628 8.566 20.5333 8.71044 20.4 8.84378L14.2667 14.9771C14.0222 15.2216 13.7169 15.3438 13.3507 15.3438C12.9836 15.3438 12.6667 15.2104 12.4 14.9438Z" fill="#F9B81A"/>
</svg>
