<svg width="141" height="27" viewBox="0 0 141 27" fill="none" xmlns="http://www.w3.org/2000/svg">
    <path d="M30.8928 16.6183L32.4487 13.0277L34.0425 16.6183H30.8928ZM32.2437 0.392563L21 26H26.8269L28.6927 21.6978H36.2984L38.2065 26H44L32.7251 0.392563C32.4844 -0.148223 32.4844 -0.113193 32.2437 0.392563Z" fill="white"/>
    <path d="M79 27H84V1H79V27Z" fill="white"/>
    <path d="M103.537 10.5075C99.9572 8.93209 99.5549 8.33677 99.5549 7.07369C99.5549 6.166 100.526 5.39638 102.365 5.39638C103.202 5.39638 104.911 5.46202 106.081 6.97183L110.265 3.78471C108.692 1.47359 105.746 0 102.265 0C97.6816 0 94.4023 2.97887 94.4023 7.10991C94.4023 11.0689 96.5438 13.2012 100.158 14.8491C103.805 16.5309 105.813 17.2621 105.813 19.3287C105.813 20.9064 104.24 21.6783 102.198 21.6081C99.7561 21.538 98.4842 19.4713 98.1835 19.0503L94 22.2035C94.703 23.4303 97.2122 27 102.365 27C107.286 27 111 23.8491 111 19.1567C111 14.5707 107.922 12.4339 103.537 10.5075Z" fill="white"/>
    <path d="M58.5513 13.9726L52.7935 1H47L58.2749 26.6058C58.5156 27.1488 58.5156 27.1137 58.7586 26.6058L70 1H64.1731L58.5513 13.9726Z" fill="white"/>
    <path d="M135.671 1V12.0593H126.327V1H121V27H126.327V17.3973H135.671V27H141V1H135.671Z" fill="white"/>
    <path d="M0 0V26H5.34999V16.3959H11.9325L14.2427 11.0606H5.34999V5.33758H16.7055L19 0H0Z" fill="white"/>
</svg>
